<svg xmlns="http://www.w3.org/2000/svg" width="119.892" height="119.892" viewBox="0 0 119.892 119.892">
  <g id="Group_9658" data-name="Group 9658" transform="translate(-3205 -4977)">
    <circle id="NoPath_-_Copy_21_" data-name="NoPath - Copy (21)" cx="59.946" cy="59.946" r="59.946" transform="translate(3205 4977)" fill="#b8bac0"/>
    <g id="Group_9656" data-name="Group 9656" transform="translate(135.319 -91.456)">
      <g id="Group_66" data-name="Group 66" transform="translate(3111.678 5152.801)">
        <g id="Group_65" data-name="Group 65">
          <path id="Path_120" data-name="Path 120" d="M182.808,336.068a24.608,24.608,0,0,1-17.473-7.37,42.124,42.124,0,0,1-.853,9.541,1.872,1.872,0,0,1,.945,1.359c.969,7.632,8.441,13.386,17.382,13.386s16.411-5.755,17.382-13.386a1.851,1.851,0,0,1,.945-1.358,42.135,42.135,0,0,1-.854-9.542A24.608,24.608,0,0,1,182.808,336.068Z" transform="translate(-164.481 -328.698)" fill="#fff"/>
        </g>
      </g>
      <g id="Group_68" data-name="Group 68" transform="translate(3111.678 5152.801)">
        <g id="Group_67" data-name="Group 67">
          <path id="Path_121" data-name="Path 121" d="M199.9,329.045a24.356,24.356,0,0,1-34.567-.347,42.124,42.124,0,0,1-.853,9.541,1.872,1.872,0,0,1,.945,1.359,14.155,14.155,0,0,0,4.665,8.682C181.78,346.686,195.047,335.512,199.9,329.045Z" transform="translate(-164.481 -328.698)" fill="#d7dbe0"/>
        </g>
      </g>
      <g id="Group_70" data-name="Group 70" transform="translate(3104.766 5113.185)">
        <g id="Group_69" data-name="Group 69">
          <path id="Path_122" data-name="Path 122" d="M178.711,160.07h-33a9.567,9.567,0,0,0-9.707,9.4v11.277c0,14.509,11.322,26.313,25.238,26.313s25.238-11.8,25.238-26.313V167.588A7.653,7.653,0,0,0,178.711,160.07Z" transform="translate(-136 -160.07)" fill="#fff"/>
        </g>
      </g>
      <g id="Group_72" data-name="Group 72" transform="translate(3098.942 5092.511)">
        <g id="Group_71" data-name="Group 71">
          <path id="Path_123" data-name="Path 123" d="M156.652,72.07H131.414a7.735,7.735,0,0,0-7.548,5.744A13.331,13.331,0,0,0,112,90.865v9.4a16.587,16.587,0,0,0,5.824,12.574V102.141a9.567,9.567,0,0,1,9.707-9.4h33a7.653,7.653,0,0,1,7.766,7.518v12.572a16.581,16.581,0,0,0,5.824-12.572V88.985C174.125,79.659,166.287,72.07,156.652,72.07Z" transform="translate(-112 -72.07)" fill="#5c546a"/>
        </g>
      </g>
      <g id="Group_73" data-name="Group 73" transform="translate(3086.719 5162.034)">
        <path id="Path_124" data-name="Path 124" d="M61.632,375.645a59.519,59.519,0,0,0,86.571,0,14.624,14.624,0,0,0-7.851-5.323,1.894,1.894,0,0,0-.235-.049l-15.5-2.251a3.744,3.744,0,0,0-.394-.021,1.92,1.92,0,0,0-1.926,1.65c-.971,7.631-8.442,13.386-17.382,13.386S88.5,377.282,87.536,369.65A1.925,1.925,0,0,0,85.56,368a1.714,1.714,0,0,0-.345.02l-15.5,2.251a1.9,1.9,0,0,0-.235.049A14.627,14.627,0,0,0,61.632,375.645Z" transform="translate(-61.632 -367.999)" fill="#5c546a"/>
      </g>
    </g>
  </g>
</svg>
