<svg id="XMLID_2_" xmlns="http://www.w3.org/2000/svg" width="21.384" height="15.902" viewBox="0 0 21.384 15.902">
  <path id="XMLID_4_" d="M12.233,109.861H.972a.972.972,0,1,1,0-1.944H12.233l-1.257-1.257a.972.972,0,1,1,1.375-1.375l2.916,2.916c.023.022.044.046.064.071l.014.019c.015.019.029.038.043.058l.011.018c.013.021.026.042.038.064l.006.013c.012.024.024.048.034.073l0,.009c.011.026.02.053.029.08l0,.01c.008.027.015.054.021.081,0,.008,0,.017,0,.025s.008.046.01.069a.958.958,0,0,1,0,.194c0,.024-.006.047-.01.07,0,.008,0,.016,0,.024-.006.028-.013.055-.021.082l0,.01c-.008.027-.018.054-.029.081l0,.009c-.01.025-.022.049-.035.073l-.006.013c-.012.022-.025.043-.039.064l-.01.017c-.013.02-.028.039-.043.058l-.014.018c-.02.025-.042.048-.064.071l-2.916,2.916a.972.972,0,0,1-1.375-1.375Z" transform="translate(5.832 -100.937)" fill="#ff3a3a"/>
  <path id="XMLID_5_" d="M110.8,42.3a7.945,7.945,0,0,1,6.6,3.521.972.972,0,0,1-1.614,1.084,6.007,6.007,0,1,0-.008,6.7.972.972,0,0,1,1.611,1.088A7.951,7.951,0,1,1,110.8,42.3Z" transform="translate(-102.845 -42.299)" fill="#ff3a3a"/>
</svg>
