<svg id="phone-svgrepo-com" xmlns="http://www.w3.org/2000/svg" width="28.976" height="28.017" viewBox="0 0 28.976 28.017">
  <path id="Path_1" data-name="Path 1" d="M54.507,34.014a3.236,3.236,0,0,1-3.232-3.232.483.483,0,1,0-.966,0,4.2,4.2,0,0,0,4.2,4.2.483.483,0,1,0,0-.966Z" transform="translate(-26.014 -16.146)"/>
  <path id="Path_2" data-name="Path 2" d="M56.392,33.269a.483.483,0,0,0,0-.966.776.776,0,0,1-.775-.775.483.483,0,1,0-.966,0A1.742,1.742,0,0,0,56.392,33.269Z" transform="translate(-28.259 -16.532)"/>
  <path id="Path_3" data-name="Path 3" d="M19.485,1.958A3.236,3.236,0,0,1,22.717,5.19a.483.483,0,0,0,.966,0,4.2,4.2,0,0,0-4.2-4.2.483.483,0,1,0,0,.966Z" transform="translate(-9.826 -0.992)"/>
  <path id="Path_4" data-name="Path 4" d="M19.748,5.817a.483.483,0,0,0,.483.483.776.776,0,0,1,.775.775.483.483,0,0,0,.966,0,1.743,1.743,0,0,0-1.74-1.741A.483.483,0,0,0,19.748,5.817Z" transform="translate(-10.211 -3.237)"/>
  <path id="Path_5" data-name="Path 5" d="M21.285,20.92a2.38,2.38,0,0,0-1.8-.312,1.608,1.608,0,0,0-.964.747,16.189,16.189,0,0,1-1.252,1.385,2.09,2.09,0,0,1-3.039-.3L8.686,16.889a2.089,2.089,0,0,1-.3-3.038A16.18,16.18,0,0,1,9.767,12.6a1.608,1.608,0,0,0,.747-.964,2.387,2.387,0,0,0-.315-1.8c-.084-.143-2.072-3.511-3.9-4.48a2.371,2.371,0,0,0-2.8.421L2.269,7A6.7,6.7,0,0,0,.183,13.527a13.811,13.811,0,0,0,4,6.311l7.1,7.1c2.783,2.783,5.437,4.18,7.871,4.18a6.937,6.937,0,0,0,4.97-2.267l1.225-1.225a2.37,2.37,0,0,0,.421-2.8C24.8,23,21.433,21.007,21.285,20.92Zm3.381,6.024-1.225,1.225c-3.172,3.171-7.033,2.528-11.474-1.913l-7.1-7.1a12.9,12.9,0,0,1-3.741-5.845A5.718,5.718,0,0,1,2.952,7.681L4.177,6.456a1.41,1.41,0,0,1,1.664-.25c1.59.842,3.5,4.083,3.52,4.11a1.485,1.485,0,0,1,.221,1.06.65.65,0,0,1-.33.4l-.072.05a14.288,14.288,0,0,0-1.6,1.478A3.994,3.994,0,0,0,6.988,14.6a6.839,6.839,0,0,1-.712-2.357.483.483,0,1,0-.961.1,9.225,9.225,0,0,0,3.071,5.635.437.437,0,0,0,.039.022l5.125,5.125c.022.022.044.041.066.062a.468.468,0,0,0,.05.074,10.077,10.077,0,0,0,5.6,2.551l.05,0a.483.483,0,0,0,.049-.963,8.508,8.508,0,0,1-2.679-.752,4.16,4.16,0,0,0,1.126-.553,14.24,14.24,0,0,0,1.478-1.6l.05-.073a.653.653,0,0,1,.4-.33,1.492,1.492,0,0,1,1.056.217c.032.019,3.273,1.933,4.115,3.523A1.408,1.408,0,0,1,24.666,26.944Z" transform="translate(0 -3.102)"/>
</svg>
