<svg id="whatsapp-whats-app-svgrepo-com" xmlns="http://www.w3.org/2000/svg" width="58.457" height="62.354" viewBox="0 0 58.457 62.354">
  <path id="Path_112" data-name="Path 112" d="M31.228,0A29.189,29.189,0,0,0,2,29.228,28.255,28.255,0,0,0,8.235,47.155L4.143,59.626a2.2,2.2,0,0,0,.585,2.143,1.389,1.389,0,0,0,1.169.585,1.172,1.172,0,0,0,.779-.195l13.445-6.041a27.045,27.045,0,0,0,11.107,2.338A29.228,29.228,0,1,0,31.228,0Z" transform="translate(-2)" fill="#25d366"/>
  <path id="Path_113" data-name="Path 113" d="M41.541,33.306c-.779,2.338-3.7,4.287-6.235,4.677a6.007,6.007,0,0,1-1.949.195c-1.559,0-3.9-.39-7.989-2.143-4.677-1.949-9.353-6.041-13.055-11.3v-.195C11.143,22.783,9,19.471,9,15.963a10.543,10.543,0,0,1,2.923-7.4A5.441,5.441,0,0,1,15.82,7h.974c1.364,0,2.338.39,3.313,2.338l.779,1.559A23,23,0,0,0,22.445,14.4a2.985,2.985,0,0,1,0,3.118,3.5,3.5,0,0,1-.974,1.364q-.292.585-.585.585l-.39.39a17.836,17.836,0,0,0,3.313,4.092,14.273,14.273,0,0,0,5.066,3.118h0c.39-.39.779-1.169,1.364-1.754l.195-.39a3.349,3.349,0,0,1,4.092-1.169c.779.39,5.066,2.338,5.066,2.338l.39.195c.585.39,1.364.585,1.754,1.364C42.515,29.409,41.931,31.942,41.541,33.306Z" transform="translate(4.64 6.64)" fill="#fff"/>
</svg>
